# Blender v2.78 (sub 0) OBJ File: 'meteorite_low.blend'
# www.blender.org
o Group23457
v 0.726154 0.778532 -0.152100
v 1.089885 1.118040 -0.601275
v 0.871006 1.245239 -0.327691
v -0.832638 2.464267 -0.492838
v -0.822970 2.462140 -0.302296
v -0.916627 2.270325 -0.318593
v -0.750392 2.469064 -0.622724
v -0.854406 2.300809 -0.642549
v -0.588259 2.420275 -0.799405
v 0.248917 0.667979 -0.993875
v 0.696067 0.765548 -1.066882
v 0.740836 0.592840 -0.922464
v 0.791545 1.354960 -1.136264
v 0.818148 1.693714 -0.934050
v -0.354899 2.285367 -0.091789
v -0.669810 2.086942 -0.870021
v -0.731227 2.263086 -0.824374
v 0.524814 1.738122 -0.942434
v 0.134176 2.402617 0.487080
v 0.236219 1.952495 0.894212
v 0.615833 2.380690 0.510407
v 0.376897 1.793060 0.999685
v 0.929702 1.370100 1.014437
v 1.087967 1.831320 0.704886
v -1.194752 1.131636 0.260509
v -0.915053 1.132325 0.787999
v -1.654224 1.905554 0.452478
v -1.138284 1.768214 0.674180
v 0.815654 0.634132 -0.530822
v 0.922314 0.747667 0.392097
v 0.927857 0.276578 0.758855
v 0.851327 0.609214 0.813631
v -0.217412 0.191736 -0.580844
v 0.108329 0.182801 -0.304216
v -0.321985 0.081063 1.020597
v 1.025340 -0.130477 0.624325
v 0.800295 1.110160 1.001037
v 0.434327 1.125835 -1.161206
v 0.739624 0.970812 -1.228374
v -0.253557 0.685574 -0.998474
v -0.712645 0.470157 0.176936
v -0.370441 0.578588 0.961812
v -0.511041 0.610453 0.321629
v 0.425627 0.634792 1.286545
v -0.831975 0.287093 0.702461
v -0.831833 0.360047 -0.015452
v -0.595317 0.021123 0.743619
v -0.714676 1.111396 0.129100
v -0.575302 0.987060 0.746580
v -0.949281 1.915048 -0.490492
v -1.141714 1.667327 -0.825865
v -0.721896 1.931419 -1.226424
v -0.815295 1.690581 -1.210341
v -0.026852 1.674686 -1.251355
v -0.089459 1.880777 -1.323046
v 0.243521 1.925838 -1.221357
v -0.046571 2.176622 -0.724489
v 0.295386 2.447082 -0.991380
v 0.005611 2.148319 -1.207590
v 0.386778 2.337286 0.133658
v 0.933366 0.985239 0.243223
v 0.774946 2.451331 -0.135099
v 0.923107 2.170543 0.722212
v 1.065967 1.972637 -0.134374
v 0.901864 0.203709 0.163999
v 0.774111 0.472113 -0.032845
v 0.403386 0.075185 -0.170414
v 0.674791 -0.148143 0.105080
v 0.192236 2.192443 -1.261695
v 0.652164 1.825495 -0.903059
v 0.904878 1.941866 -0.567400
v -1.118121 2.283941 0.226538
v -0.473861 2.467950 0.541446
v -0.816122 2.108477 0.841804
v -0.278371 2.176356 0.530052
v -0.259738 1.833853 0.992625
v 0.065567 0.919909 0.989274
v 0.501852 0.954990 1.133033
v 1.043303 1.372650 -1.035431
v 1.036363 1.525747 -0.787868
v 1.184626 1.290437 -0.745137
v 0.040836 2.247111 -0.200749
v 0.261897 2.493907 -0.371319
v -0.422776 2.181043 -0.516702
v -0.754656 0.420904 -0.479479
v -0.515293 0.935836 -0.708320
v -0.635308 0.182703 -0.108366
v 1.085081 1.764436 0.536275
v 1.160951 1.371171 0.444802
v 0.818326 1.613760 0.443390
v 0.938255 1.025856 0.927397
v 1.073445 0.957136 0.531645
v 1.246370 1.619408 0.815777
v -0.086952 1.339346 -0.954214
v -1.014870 1.322058 -0.897765
v -0.464879 1.151303 -1.010800
v 1.254146 1.548931 0.619229
v -0.183010 1.369547 -1.169543
v -0.427994 1.062156 -0.893002
v -0.268371 0.809182 -0.976123
v 0.444868 2.110268 -1.074000
v -1.419955 1.998913 -0.021104
v -1.200310 2.122952 -0.394190
v -1.396617 1.709606 -0.526547
v -1.304274 2.275460 0.164128
v 1.044452 1.535147 -0.290054
v 1.123270 1.222362 0.191068
v 0.981662 2.033810 0.341590
v -0.839737 2.573324 -0.196775
v -0.642054 2.582031 0.330298
v 1.028462 1.819124 -0.457783
v -1.382587 1.516815 -0.202290
v -1.090338 1.140799 -0.264059
v -0.766259 0.971027 -0.244693
v -0.987054 1.034583 0.017809
v -0.633100 0.835450 -0.361656
v 0.123566 2.298511 0.145866
v -0.625440 1.155219 -0.809014
v 0.622506 2.421800 -0.432915
v 0.859434 2.363270 -0.327097
v -0.028297 2.182372 0.016877
v -0.439417 0.296782 1.147646
v -0.548125 0.488188 1.103464
v 0.973624 1.163446 -1.197722
v 1.096736 1.077560 -1.049960
v 0.067295 0.609240 1.292926
v -0.305587 1.549237 1.007140
v -0.101665 0.661505 1.082149
v 0.042218 2.190625 0.480708
v -0.225928 2.133677 0.271652
v -0.151548 0.517627 -0.902837
v -1.073705 2.146981 -0.243600
v 1.072296 1.312169 -0.393052
v 1.144230 1.021300 0.270318
v 0.840214 0.982203 0.509729
v 0.359549 2.409673 -0.789539
v 0.425661 2.447618 -0.493058
v 0.800588 0.721904 1.120015
v 0.347718 0.813313 1.298717
v -0.575498 1.158714 0.909004
v 0.014296 1.612807 1.035886
v -0.106694 1.994685 -0.946097
v -0.196561 1.939236 -1.260565
v 0.637204 -0.299099 0.397209
v 0.928260 -0.072997 0.185125
v -0.623271 0.770367 -0.026076
v 1.009500 0.994224 -0.899295
v 0.818822 0.813296 -0.910275
v -0.204239 2.179018 -0.605953
v -0.829327 2.596120 0.242261
v -1.079728 2.425955 0.506523
v -0.779492 2.454743 0.706259
v -1.110320 1.516040 -0.978418
v 0.704105 -0.267026 0.591988
v -0.053039 -0.159049 0.564094
v -0.464379 1.990835 -1.220998
v -0.529956 2.106998 -0.917695
v -0.183449 -0.089571 0.812481
v 0.219299 1.143434 -0.986234
v 0.700889 0.225535 -0.423386
v -0.589883 1.801593 -1.303810
v -0.419463 1.501332 -1.228381
v -0.588483 2.619999 -0.196174
v 0.846905 0.983221 1.121411
v -1.573358 1.561983 0.214071
v 0.877023 1.858177 0.284584
v 0.732873 1.801823 0.322832
v -1.521367 1.882038 0.038202
v 0.777637 0.838939 0.721405
v 0.947572 0.885792 0.749952
v -0.027875 0.377117 1.255842
vn 0.7794 -0.0062 0.6265
vn -0.7362 0.5078 -0.4474
vn -0.9499 0.2703 -0.1570
vn 0.0140 -0.6393 -0.7688
vn -0.8991 0.4347 0.0505
vn -0.8391 -0.5025 -0.2084
vn -0.5190 0.5728 -0.6344
vn -0.0054 0.6701 0.7422
vn 0.3214 0.4492 0.8336
vn -0.7436 -0.5395 0.3950
vn -0.6751 0.4830 -0.5576
vn -0.3882 0.0286 0.9211
vn 0.9576 0.1838 0.2216
vn 0.2361 -0.2535 0.9381
vn -0.2217 -0.0141 -0.9750
vn -0.6452 0.7428 0.1787
vn 0.2510 -0.6730 0.6957
vn -0.7401 -0.6691 -0.0681
vn -0.0898 -0.9801 -0.1771
vn -0.7459 0.2480 -0.6182
vn 0.3124 -0.2261 -0.9227
vn -0.6700 0.7333 -0.1153
vn 0.0520 0.9880 -0.1455
vn 0.9247 0.0776 -0.3728
vn 0.8543 0.5194 0.0225
vn 0.3016 -0.0857 -0.9496
vn -0.1463 0.6517 0.7442
vn 0.4565 0.2729 0.8468
vn 0.8357 0.4772 -0.2717
vn -0.7337 0.6787 0.0311
vn -0.7275 0.0336 -0.6853
vn -0.4226 -0.8184 -0.3894
vn 0.8547 -0.3765 0.3574
vn 0.6916 0.2875 -0.6626
vn 0.3733 0.1345 0.9179
vn 0.5515 -0.7563 -0.3521
vn -0.2805 0.1353 -0.9503
vn -0.6609 0.7448 -0.0919
vn 0.9665 0.2091 0.1487
vn -0.8135 0.4878 -0.3168
vn 0.0418 0.9658 -0.2560
vn -0.8739 0.3552 -0.3319
vn 0.7778 0.5344 -0.3309
vn 0.9635 0.1742 0.2031
vn -0.9971 -0.0764 -0.0023
vn -0.4498 -0.8776 -0.1659
vn -0.9186 0.3308 -0.2164
vn 0.4539 0.4778 -0.7521
vn -0.6276 0.4914 -0.6039
vn -0.8717 -0.4893 0.0251
vn -0.5853 0.7977 0.1450
vn -0.0888 0.2436 -0.9658
vn 0.5021 -0.4974 -0.7075
vn -0.2633 0.9284 0.2622
vn -0.4046 -0.0157 0.9144
vn -0.3810 -0.6213 -0.6847
vn 0.3018 0.6759 -0.6724
vn 0.1345 0.9547 -0.2654
vn 0.2048 -0.8881 -0.4116
vn -0.1024 -0.9936 -0.0471
vn 0.6196 -0.1779 0.7645
vn 0.3833 0.1047 0.9177
vn -0.3113 -0.0236 0.9500
vn 0.0015 0.1939 0.9810
vn 0.4939 -0.8414 -0.2193
vn -0.9056 -0.2921 0.3076
vn -0.9119 -0.3903 0.1272
vn 0.8881 0.2962 -0.3514
vn 0.9938 -0.0095 -0.1108
vn -0.2248 -0.4528 0.8628
vn -0.9328 -0.3063 0.1896
vn -0.4946 0.6637 0.5611
vn -0.4598 0.7027 0.5429
vn -0.0346 0.6839 0.7288
vn 0.4515 0.8681 0.2063
vn 0.6632 -0.6800 -0.3126
vn 0.7975 -0.2518 -0.5483
vn -0.2913 0.9059 0.3073
vn -0.5411 0.3556 0.7621
vn -0.8203 0.5475 -0.1652
vn 0.0359 0.8732 0.4860
vn 0.1534 -0.5547 0.8178
vn -0.2831 -0.8367 -0.4688
vn -0.5805 -0.4593 0.6723
vn 0.0035 -0.7722 0.6354
vn -0.7398 0.4573 0.4935
vn -0.0638 0.0630 -0.9960
vn -0.2650 0.9634 0.0401
vn 0.1858 0.9285 0.3216
vn -0.2012 -0.6734 0.7114
vn -0.3654 -0.9102 0.1949
vn 0.9776 -0.0987 0.1858
vn 0.8795 0.4370 -0.1884
vn 0.9353 -0.3229 -0.1446
vn 0.6093 -0.0321 -0.7923
vn -0.8845 0.4525 0.1137
vn -0.5831 -0.7516 -0.3085
vn 0.0012 -0.2430 -0.9700
vn -0.0938 0.4860 -0.8689
vn -0.5007 0.8621 -0.0779
vn -0.6119 -0.4430 0.6553
vn 0.0260 0.5674 0.8230
vn 0.0273 0.5682 0.8225
vn -0.5822 0.8126 -0.0284
vn 0.9521 -0.0221 0.3051
vn 0.9864 0.1521 -0.0627
vn -0.6928 -0.7138 -0.1029
vn 0.3543 -0.0678 0.9327
vn -0.0095 -0.4992 -0.8664
vn -0.0121 -0.5628 -0.8265
vn 0.2293 0.9715 -0.0610
vn 0.3724 -0.8432 -0.3878
vn -0.6630 -0.5258 0.5329
vn -0.7915 -0.5876 -0.1678
vn -0.1025 0.0671 0.9925
vn -0.7739 0.3193 0.5469
vn -0.1526 0.9466 -0.2841
vn 0.1590 0.9160 0.3683
vn 0.4454 0.2851 0.8487
vn -0.9437 0.3098 -0.1163
vn -0.7075 -0.6759 -0.2063
vn -0.0723 0.2418 -0.9676
vn 0.9060 -0.1627 0.3908
vn 0.9740 0.2103 0.0840
vn -0.8046 -0.5227 -0.2817
vn 0.7965 0.5053 -0.3322
vn 0.7131 0.4906 -0.5007
vn -0.8276 0.3043 -0.4716
vn 0.4378 0.7548 -0.4885
vn -0.2116 -0.0812 0.9740
vn -0.5054 0.5623 0.6545
vn -0.3894 -0.6063 -0.6933
vn 0.1590 -0.8918 -0.4235
vn 0.4215 -0.6453 0.6372
vn -0.5324 -0.8378 -0.1206
vn 0.0791 -0.9004 0.4278
vn -0.3421 0.7456 -0.5719
vn -0.9124 0.3986 -0.0932
vn -0.2663 0.9639 -0.0009
vn -0.7679 -0.2982 -0.5670
vn -0.3333 -0.9097 -0.2476
vn 0.5049 -0.3886 -0.7707
vn -0.0230 0.4385 -0.8985
vn -0.3016 -0.8259 0.4764
vn -0.3580 -0.9203 -0.1577
vn 0.9944 0.0739 -0.0754
vn 0.6784 0.3017 -0.6699
vn -0.7963 0.5293 -0.2929
vn -0.2469 0.7302 0.6371
vn 0.0795 -0.3059 -0.9487
vn -0.0775 -0.5191 -0.8512
vn -0.7974 0.5315 -0.2859
vn -0.9524 -0.0127 -0.3047
vn 0.9306 0.3658 0.0118
vn 0.9034 0.1827 -0.3880
vn -0.7121 -0.6540 -0.2553
vn -0.9096 -0.0767 -0.4084
vn -0.0478 -0.0277 0.9985
vn 0.3505 -0.2214 0.9100
vn -0.1961 -0.9451 -0.2614
vn -0.8666 -0.3869 0.3151
vn -0.4522 0.6410 -0.6202
vn 0.0208 0.6920 0.7216
vn 0.6272 0.6447 0.4370
vn 0.6238 0.4360 -0.6487
vn 0.5949 -0.0072 -0.8038
vn 0.8953 -0.3340 -0.2947
vn -0.6329 0.4807 -0.6069
vn -0.7013 0.4287 -0.5695
vn 0.8067 0.5444 -0.2298
vn 0.1142 0.5263 0.8426
vn -0.1026 0.4303 -0.8968
vn -0.4244 0.1045 -0.8994
vn 0.2855 -0.9473 -0.1450
vn 0.9305 -0.2658 0.2519
vn -0.5335 -0.5591 -0.6346
vn 0.3896 -0.9208 0.0178
vn -0.1456 -0.9670 0.2092
vn 0.9185 -0.2475 0.3083
vn 0.8934 -0.4460 0.0539
vn 0.9852 0.0366 -0.1678
vn -0.6706 0.6928 -0.2652
vn -0.6262 0.3855 -0.6777
vn 0.1921 0.9707 -0.1445
vn -0.7061 0.5288 0.4711
vn -0.9346 -0.3206 0.1542
vn -0.8886 0.4421 -0.1219
vn -0.3813 0.7626 -0.5226
vn 0.2370 -0.2955 -0.9255
vn 0.8772 0.3924 0.2766
vn 0.9795 -0.1916 -0.0626
vn -0.1030 -0.7972 -0.5949
vn 0.9756 0.0774 -0.2055
vn -0.2018 0.9081 -0.3668
vn 0.1709 0.9752 -0.1408
vn 0.9310 0.1618 0.3273
vn -0.0709 0.9817 -0.1765
vn 0.7502 -0.6574 0.0708
vn 0.6146 -0.7850 -0.0783
vn 0.9313 -0.2605 0.2545
vn 0.8453 -0.3969 0.3577
vn -0.2765 -0.9533 0.1215
vn -0.1455 -0.9700 0.1949
vn -0.3453 0.2746 -0.8974
vn -0.2607 0.8814 -0.3939
vn -0.3025 0.0479 0.9519
vn 0.4124 -0.7816 0.4680
vn 0.0296 -0.1695 0.9851
vn 0.0219 -0.0585 0.9980
vn 0.4418 0.6910 -0.5722
vn 0.2281 0.4858 -0.8438
vn -0.1108 -0.5485 0.8288
vn -0.2439 -0.0547 0.9683
vn 0.0737 -0.2933 -0.9532
vn 0.7625 -0.5002 -0.4103
vn -0.1996 0.8287 0.5230
vn -0.2315 0.8352 0.4988
vn 0.4938 -0.6000 -0.6294
vn -0.0046 -0.6177 -0.7864
vn -0.8023 -0.4423 -0.4007
vn -0.7529 -0.6498 -0.1040
vn 0.4467 -0.4831 0.7531
vn 0.3408 0.9023 -0.2639
vn 0.8464 0.5148 0.1364
vn -0.0774 0.2247 -0.9713
vn -0.8326 -0.1523 -0.5325
vn 0.7952 0.5936 0.1237
vn -0.1823 0.9821 -0.0467
vn 0.8388 -0.5344 -0.1039
vn 0.0393 0.9963 0.0759
vn -0.0682 0.9523 0.2975
vn 0.8057 -0.5758 -0.1389
vn -0.0251 0.9902 0.1372
vn -0.3494 0.5331 -0.7705
vn -0.7271 0.6809 0.0877
vn 0.2306 0.8052 0.5464
vn 0.6410 0.7286 0.2413
vn -0.0105 -0.5430 -0.8397
vn 0.7995 0.4583 -0.3882
vn 0.8134 0.4443 -0.3754
vn 0.0895 0.8022 0.5903
vn 0.8289 0.5362 -0.1595
vn 0.9396 -0.3088 0.1479
vn 0.2200 -0.7435 -0.6315
vn -0.5248 -0.7497 -0.4031
vn 0.9284 0.2812 -0.2430
vn 0.8771 0.4378 -0.1977
vn -0.5568 -0.7386 -0.3800
vn -0.5899 -0.7550 -0.2862
vn -0.7906 0.5328 -0.3018
vn -0.6666 0.2164 -0.7133
vn 0.8039 0.1736 -0.5689
vn 0.2838 0.5269 -0.8011
vn -0.2757 0.4194 -0.8649
vn 0.0565 0.7756 -0.6287
vn 0.7345 0.6780 0.0285
vn -0.8538 0.4411 0.2765
vn -0.7344 0.6753 0.0685
vn 0.1888 -0.9643 -0.1856
vn 0.9338 -0.3113 0.1765
vn -0.2197 0.9754 0.0160
vn -0.6500 0.7551 0.0854
vn -0.3082 0.1334 -0.9419
vn -0.7258 0.0372 -0.6868
vn 0.9203 0.1386 0.3659
vn -0.0351 -0.8228 -0.5673
vn -0.1233 0.6733 -0.7290
vn -0.7351 0.4051 -0.5436
vn 0.1569 0.1780 0.9715
vn 0.9956 0.0886 0.0290
vn 0.9461 0.2188 -0.2389
vn -0.2907 0.0175 0.9567
vn 0.0382 -0.4320 -0.9011
vn 0.1940 -0.0275 -0.9806
vn -0.1622 0.3532 -0.9214
vn 0.5181 0.5658 -0.6414
vn -0.4350 0.8746 0.2141
vn -0.6249 0.7800 0.0335
vn 0.2959 0.1477 0.9437
vn 0.8339 -0.4205 0.3574
vn 0.7274 0.4628 -0.5067
vn 0.6058 0.6429 -0.4686
vn 0.2940 -0.7741 -0.5606
vn -0.0381 -0.8144 -0.5791
vn -0.6624 0.7251 -0.1885
vn -0.3948 -0.0106 0.9187
vn 0.2770 0.9573 0.0834
vn 0.5041 0.6253 -0.5957
vn 0.1971 0.9426 -0.2696
vn 0.4210 0.6824 -0.5976
vn 0.9385 0.1391 -0.3160
vn 0.1542 -0.8103 -0.5654
vn -0.3246 -0.5034 -0.8008
vn -0.2484 -0.4372 -0.8644
vn 0.9932 0.1018 -0.0559
vn 0.6406 0.1704 -0.7488
vn 0.0040 -0.7749 -0.6321
s off
f 1//1 2//1 3//1
f 7//2 8//2 4//2
f 4//3 8//3 6//3
f 10//4 11//4 12//4
f 5//5 4//5 6//5
f 6//6 8//6 16//6
f 7//7 9//7 17//7
f 19//8 20//8 21//8
f 22//9 23//9 24//9
f 25//10 26//10 27//10
f 7//11 17//11 8//11
f 28//12 27//12 26//12
f 30//13 32//13 31//13
f 35//14 36//14 31//14
f 38//15 39//15 40//15
f 41//16 42//16 43//16
f 31//17 44//17 35//17
f 45//18 46//18 47//18
f 25//19 48//19 49//19
f 51//20 52//20 53//20
f 54//21 55//21 56//21
f 57//22 58//22 59//22
f 60//23 19//23 21//23
f 1//24 30//24 65//24 66//24
f 62//25 63//25 64//25
f 55//26 69//26 56//26
f 28//27 72//27 27//27
f 73//28 74//28 75//28
f 79//29 80//29 81//29
f 82//30 83//30 57//30
f 85//31 86//31 40//31
f 87//32 85//32 33//32
f 91//33 92//33 93//33
f 88//34 97//34 89//34
f 22//35 24//35 63//35
f 98//36 94//36 99//36
f 99//37 94//37 100//37
f 57//38 83//38 58//38
f 66//39 29//39 1//39
f 102//40 103//40 104//40
f 72//41 103//41 105//41
f 109//42 6//42 72//42
f 73//43 75//43 110//43
f 111//44 106//44 81//44
f 112//45 102//45 104//45
f 113//46 114//46 115//46
f 85//47 116//47 86//47
f 119//48 120//48 71//48
f 103//49 51//49 104//49
f 35//50 122//50 123//50
f 42//51 41//51 45//51
f 38//52 13//52 39//52
f 39//53 124//53 125//53
f 126//54 42//54 123//54
f 127//55 42//55 128//55
f 40//56 131//56 85//56
f 50//57 51//57 103//57
f 132//58 103//58 72//58
f 133//59 134//59 61//59
f 135//60 61//60 92//60
f 23//61 91//61 93//61
f 44//62 138//62 139//62
f 140//63 42//63 127//63
f 141//64 22//64 76//64
f 144//65 145//65 36//65
f 49//66 42//66 140//66
f 49//67 48//67 42//67
f 71//68 120//68 64//68
f 111//69 64//69 106//69
f 115//70 146//70 48//70
f 43//71 42//71 48//71
f 128//72 126//72 139//72
f 42//73 126//73 128//73
f 20//74 63//74 21//74
f 63//75 62//75 21//75
f 11//76 147//76 148//76
f 11//77 148//77 12//77
f 150//78 151//78 152//78
f 152//79 151//79 74//79
f 72//80 151//80 109//80
f 129//81 75//81 20//81
f 154//82 36//82 35//82
f 155//83 68//83 144//83
f 35//84 123//84 47//84
f 35//85 158//85 154//85
f 72//86 28//86 74//86
f 94//87 159//87 100//87
f 119//88 21//88 62//88
f 15//89 130//89 121//89
f 26//90 49//90 140//90
f 25//91 49//91 26//91
f 64//92 63//92 108//92
f 63//93 24//93 88//93
f 29//94 12//94 148//94
f 56//95 101//95 70//95
f 46//96 146//96 116//96
f 114//97 146//97 115//97
f 161//98 55//98 162//98
f 156//99 55//99 52//99
f 42//100 45//100 123//100
f 123//101 45//101 47//101
f 20//102 22//102 63//102
f 22//103 20//103 76//103
f 109//104 151//104 150//104
f 81//105 106//105 133//105
f 133//106 106//106 107//106
f 46//107 87//107 47//107
f 164//108 139//108 138//108
f 40//109 10//109 131//109
f 11//110 10//110 40//110
f 58//111 83//111 137//111
f 68//112 145//112 144//112
f 27//113 165//113 25//113
f 113//114 25//114 112//114
f 141//115 76//115 127//115
f 20//116 19//116 129//116
f 60//117 117//117 19//117
f 110//118 152//118 73//118
f 73//119 152//119 74//119
f 116//120 85//120 46//120
f 46//121 85//121 87//121
f 124//122 39//122 13//122
f 164//123 138//123 91//123
f 138//124 31//124 32//124
f 153//125 95//125 112//125 104//125
f 71//126 64//126 111//126
f 80//127 14//127 71//127
f 6//128 16//128 50//128
f 132//129 50//129 103//129
f 77//130 78//130 141//130 127//130
f 139//131 77//131 128//131
f 131//132 33//132 85//132
f 3//133 133//133 61//133
f 3//134 2//134 133//134
f 25//135 113//135 115//135
f 115//136 48//136 25//136
f 59//137 58//137 69//137
f 19//138 117//138 129//138
f 57//139 149//139 121//139 82//139
f 86//140 99//140 100//140
f 95//141 96//141 118//141
f 18//142 56//142 70//142
f 13//143 18//143 70//143
f 35//144 47//144 158//144
f 87//145 155//145 47//145
f 133//146 107//146 134//146
f 89//147 97//147 134//147
f 105//148 103//148 102//148
f 105//149 27//149 72//149
f 55//150 54//150 162//150
f 96//151 162//151 98//151
f 168//152 27//152 105//152
f 27//153 168//153 165//153
f 63//154 88//154 108//154
f 125//155 79//155 81//155
f 165//156 112//156 25//156
f 168//157 112//157 165//157
f 23//158 22//158 37//158
f 37//159 91//159 23//159
f 87//160 33//160 68//160 155//160
f 74//161 151//161 72//161
f 100//162 159//162 38//162
f 139//163 164//163 37//163
f 164//164 91//164 37//164
f 69//165 58//165 101//165
f 69//166 101//166 56//166
f 61//167 30//167 1//167 3//167
f 104//168 51//168 153//168
f 51//169 53//169 153//169
f 88//170 24//170 97//170
f 93//171 24//171 23//171
f 55//172 161//172 52//172
f 52//173 161//173 53//173
f 169//174 92//174 170//174
f 138//175 32//175 170//175
f 118//176 99//176 86//176
f 144//177 36//177 154//177
f 154//178 155//178 144//178
f 133//179 2//179 81//179
f 2//180 125//180 81//180
f 107//181 89//181 134//181
f 132//182 72//182 6//182
f 132//183 6//183 50//183
f 149//184 84//184 15//184 121//184
f 41//185 43//185 146//185
f 43//186 48//186 146//186
f 57//187 59//187 142//187
f 57//188 142//188 149//188
f 169//189 170//189 32//189
f 169//190 32//190 30//190
f 66//191 160//191 12//191
f 160//192 67//192 12//192
f 145//193 65//193 36//193
f 156//194 52//194 16//194
f 119//195 137//195 83//195
f 61//196 135//196 30//196
f 130//197 75//197 129//197
f 2//198 147//198 125//198
f 11//199 125//199 147//199
f 91//200 138//200 170//200
f 91//201 170//201 92//201
f 47//202 155//202 158//202
f 155//203 154//203 158//203
f 16//204 9//204 157//204
f 156//205 16//205 157//205
f 126//206 123//206 122//206
f 171//207 35//207 44//207
f 126//208 171//208 44//208
f 44//209 139//209 126//209
f 71//210 14//210 70//210
f 70//211 14//211 13//211
f 171//212 122//212 35//212
f 122//213 171//213 126//213
f 162//214 54//214 98//214
f 98//215 54//215 94//215
f 78//216 139//216 37//216
f 77//217 139//217 78//217
f 39//218 125//218 11//218
f 40//219 39//219 11//219
f 86//220 116//220 114//220
f 114//221 116//221 146//221
f 31//222 138//222 44//222
f 120//223 119//223 62//223
f 120//224 62//224 64//224
f 9//225 16//225 17//225
f 8//226 17//226 16//226
f 110//227 15//227 163//227
f 163//228 109//228 150//228
f 29//229 66//229 12//229
f 163//230 150//230 110//230
f 152//231 110//231 150//231
f 148//232 147//232 2//232 29//232
f 119//233 83//233 60//233 21//233
f 69//234 143//234 59//234
f 143//235 142//235 59//235
f 149//236 9//236 84//236
f 9//237 5//237 84//237
f 166//238 90//238 167//238
f 111//239 80//239 71//239
f 80//240 111//240 81//240
f 74//241 76//241 20//241 75//241
f 97//242 24//242 93//242
f 97//243 93//243 92//243
f 96//244 98//244 99//244
f 118//245 96//245 99//245
f 58//246 137//246 136//246
f 101//247 58//247 136//247
f 113//248 118//248 86//248 114//248
f 113//249 112//249 95//249 118//249
f 105//250 102//250 168//250
f 168//251 102//251 112//251
f 124//252 79//252 125//252
f 124//253 13//253 79//253
f 55//254 143//254 69//254
f 55//255 156//255 143//255
f 15//256 110//256 75//256 130//256
f 41//257 146//257 46//257
f 46//258 45//258 41//258
f 134//259 92//259 61//259
f 97//260 92//260 134//260
f 121//261 130//261 129//261
f 117//262 121//262 129//262
f 38//263 40//263 100//263
f 86//264 100//264 40//264
f 30//265 135//265 169//265
f 135//266 92//266 169//266
f 109//267 163//267 5//267
f 5//268 6//268 109//268
f 37//269 22//269 141//269 78//269
f 108//270 107//270 106//270 64//270
f 108//271 88//271 89//271 107//271
f 127//272 76//272 74//272 140//272
f 56//273 159//273 94//273 54//273
f 18//274 38//274 159//274 56//274
f 18//275 13//275 38//275
f 14//276 80//276 79//276 13//276
f 60//277 83//277 82//277 117//277
f 82//278 121//278 117//278
f 77//279 127//279 128//279
f 1//280 29//280 2//280
f 136//281 71//281 70//281 101//281
f 119//282 71//282 136//282 137//282
f 10//283 34//283 33//283 131//283
f 67//284 34//284 10//284 12//284
f 51//285 50//285 16//285 52//285
f 140//286 74//286 28//286 26//286
f 9//287 7//287 4//287 5//287
f 15//288 84//288 5//288 163//288
f 142//289 143//289 156//289 157//289
f 9//290 149//290 142//290 157//290
f 65//291 145//291 160//291 66//291
f 68//292 67//292 160//292 145//292
f 53//293 96//293 95//293 153//293
f 53//294 161//294 162//294 96//294
f 36//295 65//295 30//295 31//295
f 68//296 33//296 34//296
f 67//297 68//297 34//297
